<svg xmlns="http://www.w3.org/2000/svg" xmlns:xlink="http://www.w3.org/1999/xlink" viewBox="0 0 79 81" fill="#fff" fill-rule="evenodd" stroke="#000" stroke-linecap="round" stroke-linejoin="round"><use xlink:href="#A" x=".5" y=".5"/><symbol id="A" overflow="visible"><g stroke="none"><path d="M70.417 17.693c-3.663 0-6.923 3.235-6.923 6.877 0 2.427 1.627 4.854 3.663 6.067v28.327l-21.163 12.54 3.256 5.26 22.79-13.35c.815-.404 1.629-1.617 1.629-2.833V30.645c2.444-1.221 3.671-3.64 3.671-6.067.4-3.642-2.856-6.885-6.923-6.885zm-7.329-4.443L40.298.304c-.815-.406-2.037-.406-3.256 0L10.994 15.272c-1.196-.821-2.62-1.246-4.071-1.213C3.269 14.058 0 17.295 0 20.935s3.256 6.879 6.923 6.879 6.923-3.237 6.923-6.879L38.673 6.777l21.154 12.136zm-27.671 53.4q-1.833 0-3.654 1.213L10.609 55.727V31.454H4.071v25.89c0 1.215.813 2.429 1.627 2.833l22.796 12.54v.406c0 3.64 3.256 6.877 6.923 6.877s6.923-3.237 6.923-6.877-3.269-6.473-6.923-6.473z" fill="#aecbfa" fill-rule="nonzero"/><path d="M59.019 26.195L39.077 14.464l-20.35 11.731 20.35 11.329 19.942-11.329zM39.077 41.567l-21.571-12.54V39.14l21.571 12.136v-9.71zm0 13.756L17.506 42.781v8.496l21.571 12.54v-8.494z" fill-rule="nonzero" fill="#669df6"/><path d="M39.071 41.562v9.723L60.64 38.729v-9.69zm17.692-3.846a1.57 1.57 0 0 1-1.569-1.569 1.57 1.57 0 0 1 1.569-1.569 1.57 1.57 0 0 1 1.569 1.569c-.003.865-.704 1.566-1.569 1.569zm-17.692 17.6v8.492L60.64 51.285v-8.492zm17.692-4.4a1.57 1.57 0 0 1-1.569-1.569 1.57 1.57 0 0 1 1.569-1.569 1.57 1.57 0 0 1 1.569 1.569c-.003.865-.704 1.566-1.569 1.569z" fill-rule="nonzero" fill="#4285f4"/></g></symbol></svg>