<svg xmlns="http://www.w3.org/2000/svg" xmlns:xlink="http://www.w3.org/1999/xlink" viewBox="0 0 81 81" fill="#fff" fill-rule="evenodd" stroke="#000" stroke-linecap="round" stroke-linejoin="round"><use xlink:href="#A" x=".5" y=".5"/><symbol id="A" overflow="visible"><path d="M0 0h35.56v8.88H0zm0 71.12h35.56V80H0zm0-35.56h35.56v8.88H0zM44.44 0H80v8.88H44.44zm0 71.12H80V80H44.44zm0-35.56H80v8.88H44.44zM22.2 17.76h35.56v8.88H22.2zm0 35.56h35.56v8.88H22.2zM0 17.76h13.32v8.88H0zm0 35.56h13.32v8.88H0zm66.68-35.56H80v8.88H66.68zm0 35.56H80v8.88H66.68z" stroke="none" fill="#4285f4" fill-rule="nonzero"/></symbol></svg>