<svg xmlns="http://www.w3.org/2000/svg" fill="none" viewBox="0 0 128 128" id="Cloudflare-Icon--Streamline-Svg-Logos" height="128" width="128">
  <desc>
    Cloudflare Icon Streamline Icon: https://streamlinehq.com
  </desc>
  <path fill="#fbad41" d="M101.95226666666667 60.236266666666666c-0.4201333333333333 0 -0.8345333333333333 0.015333333333333332 -1.2489333333333332 0.028666666666666663 -0.0672 0.0036 -0.13306666666666667 0.0192 -0.1948 0.04586666666666667 -0.2228 0.07586666666666667 -0.39226666666666665 0.25893333333333335 -0.45066666666666666 0.48693333333333333l-1.7761333333333333 6.203999999999999c-0.7657333333333334 2.6674666666666664 -0.48119999999999996 5.1308 0.8058666666666667 6.939066666666666 1.1802666666666666 1.6727999999999998 3.143466666666667 2.6542666666666666 5.526933333333333 2.7687999999999997l9.634666666666666 0.5842666666666666c0.2864 0.015333333333333332 0.5346666666666666 0.1528 0.6856 0.37999999999999995 0.16013333333333332 0.24586666666666668 0.19613333333333333 0.5524 0.09733333333333333 0.8288 -0.15839999999999999 0.4525333333333333 -0.5669333333333333 0.7706666666666666 -1.0445333333333333 0.8133333333333332l-10.010933333333334 0.5844c-5.439066666666666 0.252 -11.290533333333332 4.689733333333333 -13.343466666666666 10.101199999999999l-0.7218666666666667 1.9094666666666664c-0.06306666666666666 0.16066666666666665 -0.04466666666666667 0.34186666666666665 0.0492 0.4865333333333333 0.09399999999999999 0.14466666666666667 0.252 0.2352 0.4244 0.24293333333333333h34.47866666666667c0.412 0.0017333333333333333 0.7745333333333333 -0.2717333333333333 0.8861333333333332 -0.6682666666666666 0.6123999999999999 -2.2009333333333334 0.9208 -4.475199999999999 0.9168 -6.7596 0 -13.786666666666665 -11.055733333333333 -24.961066666666667 -24.698933333333333 -24.961066666666667" stroke-width="1.3333"></path>
  <path fill="#f6821f" d="m86.9036 91.83866666666667 0.6378666666666666 -2.243733333333333c0.7677333333333333 -2.6676 0.48319999999999996 -5.1308 -0.8021333333333334 -6.939066666666666 -1.184 -1.6727999999999998 -3.1453333333333333 -2.6542666666666666 -5.530666666666666 -2.7687999999999997l-45.194266666666664 -0.5844c-0.28506666666666663 -0.005066666666666666 -0.5505333333333333 -0.14639999999999997 -0.7142666666666666 -0.37986666666666663 -0.16066666666666665 -0.24559999999999998 -0.19746666666666668 -0.5522666666666667 -0.09919999999999998 -0.8288 0.15973333333333334 -0.4554666666666667 0.5729333333333333 -0.7742666666666667 1.0541333333333331 -0.8134666666666666l45.61626666666667 -0.5842666666666666c5.416133333333333 -0.2501333333333333 11.267599999999998 -4.689733333333333 13.320533333333332 -10.101333333333333l2.6010666666666666 -6.874133333333333c0.1048 -0.29146666666666665 0.1324 -0.6058666666666667 0.0764 -0.9108 -2.9638666666666666 -13.408533333333333 -14.819599999999998 -23.450666666666667 -28.993866666666666 -23.450666666666667 -13.066399999999998 0 -24.15253333333333 8.520266666666666 -28.130533333333332 20.364933333333333 -2.6782666666666666 -2.0365333333333333 -6.032533333333333 -2.9748 -9.378799999999998 -2.623733333333333 -6.264 0.6301333333333333 -11.305733333333333 5.732399999999999 -11.9284 12.064266666666665 -0.16119999999999998 1.5814666666666666 -0.04479999999999999 3.1788 0.34386666666666665 4.720266666666666C9.545266666666667 70.19053333333332 1.3333333333333333 78.66493333333332 1.3333333333333333 89.07933333333332c0 0.9414666666666666 0.06684 1.8694666666666664 0.20243999999999998 2.7745333333333333 0.05582666666666666 0.43920000000000003 0.42991999999999997 0.7682666666666667 0.8727466666666667 0.7676H85.87226666666666c0.48279999999999995 -0.007866666666666666 0.9026666666666667 -0.3328 1.0313333333333332 -0.7981333333333334" stroke-width="1.3333"></path>
</svg>