<?xml version="1.0" encoding="utf-8"?>
<svg xmlns="http://www.w3.org/2000/svg" viewBox="213.4684 219.1033 58.467 55.5385" width="58.467px" height="55.5385px">
  <path d="M 123.084 195.583 L 108.206 180.705 C 107.897 180.397 107.824 179.924 108.025 179.538 C 110.103 175.535 109.305 170.49 106.085 167.27 C 103.789 164.974 100.618 163.883 97.394 164.271 C 94.164 164.662 91.316 166.526 89.582 169.387 C 87.544 172.746 87.635 177.055 89.812 180.366 C 92.833 184.961 98.722 186.55 103.51 184.067 C 103.897 183.867 104.368 183.939 104.678 184.248 L 107.146 186.716 C 107.333 186.903 107.438 187.158 107.438 187.423 L 107.438 190.666 L 110.681 190.666 C 110.945 190.666 111.2 190.771 111.388 190.958 L 112.803 192.372 C 112.99 192.56 113.096 192.814 113.096 193.08 L 113.096 196.322 L 116.338 196.322 C 116.604 196.322 116.857 196.428 117.045 196.615 L 118.9 198.471 L 122.842 198.734 L 123.084 195.583 Z M 125.113 195.278 L 124.76 199.874 C 124.72 200.398 124.282 200.797 123.764 200.797 C 123.741 200.797 123.719 200.797 123.696 200.795 L 118.393 200.441 C 118.15 200.425 117.923 200.322 117.752 200.151 L 115.924 198.322 L 112.096 198.322 C 111.543 198.322 111.096 197.875 111.096 197.322 L 111.096 193.494 L 110.267 192.666 L 106.438 192.666 C 105.886 192.666 105.438 192.218 105.438 191.666 L 105.438 187.837 L 103.766 186.164 C 98.192 188.65 91.587 186.708 88.14 181.465 C 85.542 177.513 85.437 172.365 87.871 168.35 C 89.927 164.96 93.311 162.75 97.153 162.286 C 100.995 161.824 104.766 163.123 107.499 165.856 C 111.152 169.509 112.182 175.142 110.121 179.792 L 124.823 194.494 C 125.029 194.701 125.136 194.987 125.113 195.278 Z M 101.069 174.604 C 101.069 173.936 100.809 173.308 100.336 172.836 C 99.863 172.363 99.235 172.103 98.568 172.103 C 97.901 172.103 97.273 172.363 96.801 172.835 C 95.826 173.81 95.826 175.396 96.801 176.371 C 97.775 177.346 99.361 177.346 100.336 176.371 C 100.809 175.898 101.069 175.271 101.069 174.604 Z M 101.75 171.421 C 102.601 172.271 103.069 173.401 103.069 174.604 C 103.069 175.805 102.601 176.935 101.75 177.785 L 101.75 177.786 C 100.873 178.663 99.721 179.101 98.568 179.101 C 97.416 179.101 96.264 178.663 95.387 177.785 C 93.633 176.03 93.633 173.175 95.387 171.421 C 96.236 170.571 97.366 170.103 98.568 170.103 C 99.771 170.103 100.9 170.571 101.75 171.421 Z M 77.647 178.18 L 83.646 178.18 L 83.646 180.18 L 77.646 180.18 C 71.792 180.167 66.972 176.015 66.67 170.726 C 66.657 170.476 66.646 170.245 66.646 170.013 C 66.646 163.489 71.273 161.064 73.997 160.203 C 73.979 159.915 73.97 159.624 73.97 159.328 C 73.97 153.978 77.727 148.44 82.709 146.447 C 88.516 144.103 94.674 145.269 99.172 149.565 C 100.359 150.685 101.877 152.359 102.941 154.4 C 104.077 153.402 105.36 152.913 106.829 152.913 C 109.732 152.913 112.986 155.249 113.577 160.355 C 119.596 161.73 122.646 165.033 122.646 170.18 C 122.646 175.607 119.424 179.248 113.807 180.167 L 113.484 178.193 C 116.751 177.659 120.646 175.834 120.646 170.18 C 120.646 165.799 118.043 163.251 112.454 162.162 C 112.007 162.074 111.675 161.695 111.647 161.24 C 111.423 157.515 109.441 154.913 106.829 154.913 C 105.494 154.913 104.447 155.493 103.435 156.794 C 103.212 157.08 102.855 157.222 102.494 157.169 C 102.137 157.114 101.836 156.87 101.709 156.531 C 100.837 154.201 99.1 152.246 97.796 151.016 C 93.877 147.274 88.518 146.262 83.454 148.303 C 79.256 149.982 75.97 154.825 75.97 159.328 C 75.97 159.833 76 160.319 76.063 160.813 C 76.067 160.85 76.069 160.888 76.07 160.926 L 76.07 160.928 L 76.07 160.93 L 76.07 160.932 L 76.07 160.934 L 76.07 160.936 L 76.07 160.937 L 76.07 160.938 L 76.07 160.94 C 76.07 161.445 75.696 161.867 75.21 161.936 C 72.711 162.57 68.646 164.456 68.646 170.013 C 68.646 170.21 68.656 170.407 68.666 170.596 C 68.908 174.845 72.854 178.17 77.647 178.18 Z" id="path-1" style="fill: rgb(221, 52, 76);" transform="matrix(1, 0, 0, 1, 146.82235717773438, 73.8448715209961)"/>
</svg>
