<svg xmlns="http://www.w3.org/2000/svg" xmlns:xlink="http://www.w3.org/1999/xlink" viewBox="0 0 75 81" fill="#fff" fill-rule="evenodd" stroke="#000" stroke-linecap="round" stroke-linejoin="round"><use xlink:href="#A" x=".5" y=".5"/><symbol id="A" overflow="visible"><g stroke="none"><circle cx="11.537" cy="11.537" fill="#aecbfa" r="11.537" transform="matrix(-.5 -.866025 .866025 -.5 32.428631 56.719606)"/><g fill="#669df6"><circle cx="7.19" cy="7.19" r="7.19" transform="matrix(-.5 -.866025 .866025 -.5 61.871209 34.70122)"/><circle cx="7.19" cy="7.19" r="7.19" transform="matrix(-.5 .866025 -.866025 -.5 18.621192 22.248398)"/></g><circle cx="36.651" cy="8.8" fill="#aecbfa" r="8.8"/><circle cx="36.651" cy="73.12" fill="#669df6" r="6.88"/><circle cx="9.196" cy="9.196" fill="#aecbfa" r="9.196" transform="matrix(-.5 -.866025 .866025 -.5 5.434033 69.602014)"/><path fill="#4285f4" d="M23.029 45.13l-8.724 5.037a8.82 8.82 0 0 1 2.116 2.474 8.82 8.82 0 0 1 1.084 3.069l8.724-5.037c-.717-.773-1.36-1.639-1.91-2.592s-.979-1.943-1.29-2.95z"/><circle cx="9.196" cy="9.196" fill="#aecbfa" r="9.196" transform="matrix(-.5 .866025 -.866025 -.5 77.064768 53.674005)"/><path d="M47.076 50.673c1.497-1.6 2.58-3.502 3.204-5.54l8.718 5.033c-.829.666-1.551 1.495-2.116 2.474a8.82 8.82 0 0 0-1.084 3.069zm-7.225-23.602a14.17 14.17 0 0 0-6.4.005V17.004a8.82 8.82 0 0 0 6.4 0z" fill="#4285f4"/></g></symbol></svg>