<svg xmlns="http://www.w3.org/2000/svg" xmlns:xlink="http://www.w3.org/1999/xlink" viewBox="0 0 79 81" fill="#fff" fill-rule="evenodd" stroke="#000" stroke-linecap="round" stroke-linejoin="round"><use xlink:href="#A" x=".5" y=".5"/><symbol id="A" overflow="visible"><g stroke="none"><path fill="#4285f4" d="M56.837 26.776l-2.957-2.957-14.456 15.113-5.914-5.914-2.957 2.957 8.871 8.871z"/><path fill="#aecbfa" d="M20.156 48.72a28.23 28.23 0 0 0 3.794 4.702l1.357 1.272L11.17 68.829l5.257 5.257L10.513 80 0 69.487z"/><path d="M15.002 64.999l5.808-5.808 5.436 5.436-5.808 5.808zm1.047-27.217c.85 5.716 3.483 11.222 7.901 15.64s9.924 7.052 15.64 7.901v6.028h8.214v-6.028c4.439-.66 8.751-2.396 12.526-5.207l4.276 4.276 5.808-5.808-4.276-4.276c2.812-3.775 4.548-8.087 5.208-12.526h6.028v-8.214h-6.028c-.66-4.439-2.396-8.751-5.208-12.526l4.276-4.276-5.808-5.808-4.276 4.276c-3.775-2.812-8.087-4.548-12.526-5.207V0H39.59v6.028c-4.439.66-8.751 2.396-12.526 5.207l-4.276-4.276-5.808 5.808 4.276 4.276a27.77 27.77 0 0 0-5.208 12.526H10.02v8.214zm41.587 9.832a19.67 19.67 0 0 1-27.878 0 19.67 19.67 0 0 1 0-27.878 19.67 19.67 0 0 1 27.878 0 19.67 19.67 0 0 1 0 27.878z" fill="#579bfb"/></g></symbol></svg>