<svg xmlns="http://www.w3.org/2000/svg" xmlns:xlink="http://www.w3.org/1999/xlink" viewBox="0 0 81 77" fill="#fff" fill-rule="evenodd" stroke="#000" stroke-linecap="round" stroke-linejoin="round"><use xlink:href="#A" x=".5" y=".5"/><symbol id="A" overflow="visible"><g stroke="none"><path d="M32 55.8h16v16H32z" fill="#4285f4" fill-rule="nonzero"/><path d="M68 31.16L50.64 13.84l-4.04 4.04L68 39.2v-8.04z" fill="#669df6"/><path d="M54.68 25.92l-8.08-8.04 4.04-4.04 4.04 4.04v8.04z" fill="#4285f4"/><path d="M35.76 36.76l-4.04-4.04 18.92-18.88 4.04 4.04-18.92 18.88z" fill="#aecbfa"/><path d="M35.76 36.76l-11.44-11.4 4.08-4.04 11.4 11.4-4.04 4.04z" fill="#669df6"/><path d="M32.32 33.32l-8-7.96 4.08-4.04 3.92 3.92v8.08z" fill="#4285f4"/><path d="M13.76 43.76l18.56-18.52-4.04-4.04L12 37.44v6.32h1.76z" fill="#aecbfa"/><path d="M80 4a4.96 4.96 0 0 0-4-4H4a4.96 4.96 0 0 0-4 4v51.8a4.76 4.76 0 0 0 4 4h72a4.76 4.76 0 0 0 4-4V4zm-8 47.8H8v-44h64zm-48 24c0-2.76 1.24-4 4-4h24c2.76 0 4 1.24 4 4z" fill="#669df6"/></g></symbol></svg>