<svg xmlns="http://www.w3.org/2000/svg" xmlns:xlink="http://www.w3.org/1999/xlink" viewBox="0 0 81 81" fill="#fff" fill-rule="evenodd" stroke="#000" stroke-linecap="round" stroke-linejoin="round"><style><![CDATA[.B{fill-rule:nonzero}.C{stroke:none}.D{fill:#669df6}.E{fill:#aecbfa}]]></style><use xlink:href="#A" x=".5" y=".5"/><symbol id="A" overflow="visible"><path d="M64 40h8v16h-8zm-28 0h8v16h-8zM8 40h8v16H8z" class="B C D"/><path d="M44 36h-8V20h8v16z" fill="#4285f4" class="B C"/><path d="M8 36h64v8H8z" class="B C D"/><path d="M16 0h48v20H16z" class="B C E"/><path d="M40 0h24v20H40z" class="B C D"/><path d="M56 56h24v24H56zM0 56h24v24H0z" class="B C E"/><path d="M12 56h12v24H12z" class="B C D"/><path d="M28 56h24v24H28z" class="B C E"/><path d="M40 56h12v24H40zm28 0h12v24H68z" class="B C D"/></symbol></svg>